# xmcd
#
# Track frame offsets: 
#        183
#        21840
#        35220
#        42430
#        50738
#        63760
#        67888
#        94178
#        120943
#        148383
#        153373
#        180170
#        192755
#        202225
#        220598
#
# Disc length: 3028 seconds
#
# Revision: 16
# Processed by: cddbd v1.5.2PL0 Copyright (c) Steve Scherf et al.
# Submitted via: ExactAudioCopy v1.3
#
DISCID=d60bd20f
DTITLE=Queen - Live At Wembley '86 Disk 2
DYEAR=1992
DGENRE=Rock
TTITLE0=Love Of My Life
TTITLE1=Is This The World We Created
TTITLE2=(You're So Square) Baby I Don't Care
TTITLE3=Hello Mary Lou (Goodbye Heart)
TTITLE4=Tutti Frutti
TTITLE5=Gimme Some Lovin'
TTITLE6=Bohemian Rhapsody
TTITLE7=Hammer To Fall
TTITLE8=Crazy Little Thing Called Love
TTITLE9=Big Spender
TTITLE10=Radio Ga Ga
TTITLE11=We Will Rock You
TTITLE12=Friends Will Be Friends
TTITLE13=We Are The Champions
TTITLE14=God Save The Queen
EXTD=
EXTT0=
EXTT1=
EXTT2=
EXTT3=
EXTT4=
EXTT5=
EXTT6=
EXTT7=
EXTT8=
EXTT9=
EXTT10=
EXTT11=
EXTT12=
EXTT13=
EXTT14=
PLAYORDER=
